<svg width="500" height="400" viewBox="0 0 500 400" fill="none" xmlns="http://www.w3.org/2000/svg">
  <defs>
    <linearGradient id="gradient1" x1="128" y1="32" x2="128" y2="224" gradientUnits="userSpaceOnUse">
      <stop offset="0%" stop-color="#1a4d6d"/>
      <stop offset="100%" stop-color="#0a2540"/>
    </linearGradient>
  </defs>
  <g transform="translate(122, 20)">
    <rect x="32" y="32" width="192" height="192" rx="48" fill="url(#gradient1)"/>
    <rect x="32" y="32" width="192" height="192" rx="48" stroke="#0a2540" stroke-width="8"/>
    <rect x="56" y="56" width="144" height="144" rx="12" fill="#5FEEE3"/>
    <rect x="56" y="56" width="144" height="144" rx="12" stroke="#0a2540" stroke-width="6"/>
    <rect x="76" y="84" width="48" height="8" rx="4" fill="#0a2540"/>
    <rect x="76" y="104" width="64" height="8" rx="4" fill="#0a2540"/>
    <path d="M160 68 L176 84 L200 60" stroke="#5FEEE3" stroke-width="12" stroke-linecap="round" stroke-linejoin="round" fill="none"/>
    <path d="M160 68 L176 84 L200 60" stroke="#0a2540" stroke-width="6" stroke-linecap="round" stroke-linejoin="round" fill="none"/>
    <path d="M56 140 Q 80 135, 100 140 T 144 140 T 188 140 L200 140 L200 188 Q 200 200, 188 200 L68 200 Q 56 200, 56 188 Z" fill="#3AB4F2"/>
    <path d="M56 140 Q 80 135, 100 140 T 144 140 T 188 140 L200 140" stroke="#0a2540" stroke-width="6" fill="none"/>
    <path d="M56 160 Q 80 155, 100 160 T 144 160 T 200 160" stroke="#0a2540" stroke-width="6" fill="none" stroke-linecap="round"/>
    <path d="M56 175 Q 80 170, 100 175 T 144 175 T 200 175" stroke="#0a2540" stroke-width="6" fill="none" stroke-linecap="round"/>
  </g>
  <text x="250" y="360" font-family="Arial, Helvetica, sans-serif" font-size="72" font-weight="700" fill="#0a2540" text-anchor="middle">SwimNote</text>
</svg>
