<svg width="580" height="480" viewBox="0 0 580 480" fill="none" xmlns="http://www.w3.org/2000/svg">
  <defs>
    <linearGradient id="gradient1" x1="160" y1="40" x2="160" y2="280" gradientUnits="userSpaceOnUse">
      <stop offset="0%" stop-color="#154a6d"/>
      <stop offset="100%" stop-color="#0a2540"/>
    </linearGradient>
  </defs>
  <g transform="translate(130, 20)">
    <rect x="40" y="40" width="240" height="240" rx="60" fill="url(#gradient1)"/>
    <rect x="40" y="40" width="240" height="240" rx="60" stroke="#0a2540" stroke-width="8"/>
    <rect x="70" y="70" width="180" height="180" rx="16" fill="#6ef5ea"/>
    <rect x="70" y="70" width="180" height="180" rx="16" stroke="#0a2540" stroke-width="7"/>
    <rect x="95" y="105" width="60" height="10" rx="5" fill="#0a2540"/>
    <rect x="95" y="130" width="80" height="10" rx="5" fill="#0a2540"/>
    <path d="M200 85 L220 105 L250 75" stroke="#6ef5ea" stroke-width="16" stroke-linecap="round" stroke-linejoin="round" fill="none"/>
    <path d="M200 85 L220 105 L250 75" stroke="#0a2540" stroke-width="8" stroke-linecap="round" stroke-linejoin="round" fill="none"/>
    <path d="M70 175 Q 100 168, 125 175 T 180 175 T 235 175 L250 175 L250 234 Q 250 250, 234 250 L86 250 Q 70 250, 70 234 Z" fill="#0ea5e9"/>
    <path d="M70 175 Q 100 168, 125 175 T 180 175 T 235 175 L250 175" stroke="#0a2540" stroke-width="7" fill="none"/>
    <path d="M70 200 Q 100 193, 125 200 T 180 200 T 235 200 L250 200" stroke="#0a2540" stroke-width="7" fill="none" stroke-linecap="round"/>
    <path d="M70 220 Q 100 213, 125 220 T 180 220 T 235 220 L250 220" stroke="#0a2540" stroke-width="7" fill="none" stroke-linecap="round"/>
  </g>
  <text x="290" y="422" font-family="'Avenir Next', 'Segoe UI', 'Helvetica Neue', Roboto, sans-serif" font-size="80" font-weight="700" fill="#0a2540" text-anchor="middle">SwimNote</text>
</svg>
