<?xml version="1.0" encoding="utf-8"?>
<!DOCTYPE svg PUBLIC "-//W3C//DTD SVG 1.1//EN" "http://www.w3.org/Graphics/SVG/1.1/DTD/svg11.dtd">
<svg version="1.1" id="Layer_1" xmlns="http://www.w3.org/2000/svg" xmlns:xlink="http://www.w3.org/1999/xlink" x="0px" y="0px"
	 width="500px" height="400px" viewBox="0 0 500 400" enable-background="new 0 0 500 400" xml:space="preserve">
<g transform="translate(122, 20)">
	<linearGradient id="SVGID_1_" gradientUnits="userSpaceOnUse" x1="30.9604" y1="347.5898" x2="30.9604" y2="162.3398" gradientTransform="matrix(1 0 0 -1 101.04 383.3398)">
		<stop  offset="0" style="stop-color:#1A4D6D"/>
		<stop  offset="1" style="stop-color:#0A2540"/>
	</linearGradient>
	<path fill="url(#SVGID_1_)" d="M91.875,35.75h80.25c22.161,0,40.125,20.735,40.125,46.313v92.625
		c0,25.578-17.964,46.313-40.125,46.313h-80.25c-22.161,0-40.125-20.734-40.125-46.313V82.063
		C51.75,56.485,69.714,35.75,91.875,35.75z"/>
	<path fill="none" stroke="#0A2540" stroke-width="8" d="M90.75,32h82.5c22.782,0,41.25,21.49,41.25,48v96
		c0,26.51-18.468,48-41.25,48h-82.5c-22.782,0-41.25-21.49-41.25-48V80C49.5,53.49,67.968,32,90.75,32z"/>
	<path fill="#5FEEE3" d="M80.438,56h103.125c5.695,0,10.313,5.373,10.313,12v120c0,6.627-4.617,12-10.313,12H80.438
		c-5.696,0-10.313-5.373-10.313-12V68C70.125,61.373,74.742,56,80.438,56z"/>
	<path fill="none" stroke="#0A2540" stroke-width="6" d="M80.438,56h103.125c5.695,0,10.313,5.373,10.313,12v120
		c0,6.627-4.617,12-10.313,12H80.438c-5.696,0-10.313-5.373-10.313-12V68C70.125,61.373,74.742,56,80.438,56z"/>
	<path fill="#0A2540" d="M90.75,84h34.375c1.899,0,3.438,1.791,3.438,4l0,0c0,2.209-1.539,4-3.438,4H90.75
		c-1.899,0-3.437-1.791-3.437-4l0,0C87.313,85.791,88.851,84,90.75,84z"/>
	<path fill="#0A2540" d="M90.75,104h48.125c1.898,0,3.438,1.791,3.438,4l0,0c0,2.209-1.539,4-3.438,4H90.75
		c-1.899,0-3.437-1.791-3.437-4l0,0C87.313,105.791,88.851,104,90.75,104z"/>
	<path fill="none" stroke="#5FEEE3" stroke-width="12" stroke-linecap="round" stroke-linejoin="round" d="M159.499,68l13.751,16
		l20.625-24"/>
	<path fill="none" stroke="#0A2540" stroke-width="6" stroke-linecap="round" stroke-linejoin="round" d="M159.499,68l13.751,16
		l20.625-24"/>
	<path fill="#3AB4F2" d="M70.125,140c13.75-3.333,26.354-3.333,37.813,0s24.062,3.333,37.813,0c13.748-3.333,26.353-3.333,37.812,0
		h10.313v48c0,8-3.438,12-10.313,12H80.438c-6.875,0-10.313-4-10.313-12V140z"/>
	<path fill="none" stroke="#0A2540" stroke-width="6" d="M70.125,140c13.75-3.333,26.354-3.333,37.813,0s24.062,3.333,37.813,0
		c13.748-3.333,26.353-3.333,37.812,0h10.313"/>
	<path fill="none" stroke="#0A2540" stroke-width="6" stroke-linecap="round" d="M70.125,160c13.75-3.333,26.354-3.333,37.813,0
		s24.062,3.333,37.813,0c13.748-3.333,29.791-3.333,48.124,0"/>
	<path fill="none" stroke="#0A2540" stroke-width="6" stroke-linecap="round" d="M70.125,175c13.75-3.333,26.354-3.333,37.813,0
		s24.062,3.333,37.813,0c13.748-3.333,29.791-3.333,48.124,0"/>
</g>
<text transform="matrix(1 0 0 1 84.9761 319)" fill="#0A2540" font-family="'Arial-BoldMT'" font-size="72">SwimNote</text>
</svg>
